<svg viewBox="0 0 1200 630" xmlns="http://www.w3.org/2000/svg">
<defs>
  <radialGradient id="glow" cx="50%" cy="50%" r="58%">
    <stop offset="0%" stop-color="#512BD4" stop-opacity="0.34"/>
    <stop offset="42%" stop-color="#512BD4" stop-opacity="0.12"/>
    <stop offset="100%" stop-color="#512BD4" stop-opacity="0"/>
  </radialGradient>
  <linearGradient id="edge" x1="0" y1="0" x2="0" y2="1">
    <stop offset="0%" stop-color="#0E1320"/><stop offset="100%" stop-color="#0B0F17"/>
  </linearGradient>
</defs>
<rect width="1200" height="630" fill="url(#edge)"/>
<g><rect x="-23.0" y="-50.0" width="42" height="42" rx="10" fill="#FFFFFF" opacity="0.079"/> <rect x="63.0" y="-50.0" width="42" height="42" rx="10" fill="#FFFFFF" opacity="0.075"/> <rect x="149.0" y="-50.0" width="42" height="42" rx="10" fill="#FFFFFF" opacity="0.071"/> <rect x="235.0" y="-50.0" width="42" height="42" rx="10" fill="#FFFFFF" opacity="0.067"/> <rect x="321.0" y="-50.0" width="42" height="42" rx="10" fill="#FFFFFF" opacity="0.063"/> <rect x="407.0" y="-50.0" width="42" height="42" rx="10" fill="#FFFFFF" opacity="0.060"/> <rect x="493.0" y="-50.0" width="42" height="42" rx="10" fill="#FFFFFF" opacity="0.058"/> <rect x="579.0" y="-50.0" width="42" height="42" rx="10" fill="#FFFFFF" opacity="0.057"/> <rect x="665.0" y="-50.0" width="42" height="42" rx="10" fill="#FFFFFF" opacity="0.058"/> <rect x="751.0" y="-50.0" width="42" height="42" rx="10" fill="#FFFFFF" opacity="0.060"/> <rect x="837.0" y="-50.0" width="42" height="42" rx="10" fill="#FFFFFF" opacity="0.063"/> <rect x="923.0" y="-50.0" width="42" height="42" rx="10" fill="#7C5CFF" opacity="0.191"/> <rect x="1009.0" y="-50.0" width="42" height="42" rx="10" fill="#FFFFFF" opacity="0.071"/> <rect x="1095.0" y="-50.0" width="42" height="42" rx="10" fill="#FFFFFF" opacity="0.075"/> <rect x="1181.0" y="-50.0" width="42" height="42" rx="10" fill="#FFFFFF" opacity="0.079"/> <rect x="-23.0" y="36.0" width="42" height="42" rx="10" fill="#FFFFFF" opacity="0.066"/> <rect x="63.0" y="36.0" width="42" height="42" rx="10" fill="#7C5CFF" opacity="0.180"/> <rect x="149.0" y="36.0" width="42" height="42" rx="10" fill="#FFFFFF" opacity="0.051"/> <rect x="235.0" y="36.0" width="42" height="42" rx="10" fill="#FFFFFF" opacity="0.045"/> <rect x="321.0" y="36.0" width="42" height="42" rx="10" fill="#FFFFFF" opacity="0.040"/> <rect x="407.0" y="36.0" width="42" height="42" rx="10" fill="#FFFFFF" opacity="0.037"/> <rect x="493.0" y="36.0" width="42" height="42" rx="10" fill="#FFFFFF" opacity="0.035"/> <rect x="579.0" y="36.0" width="42" height="42" rx="10" fill="#FFFFFF" opacity="0.035"/> <rect x="665.0" y="36.0" width="42" height="42" rx="10" fill="#FFFFFF" opacity="0.035"/> <rect x="751.0" y="36.0" width="42" height="42" rx="10" fill="#FFFFFF" opacity="0.037"/> <rect x="837.0" y="36.0" width="42" height="42" rx="10" fill="#FFFFFF" opacity="0.040"/> <rect x="923.0" y="36.0" width="42" height="42" rx="10" fill="#FFFFFF" opacity="0.045"/> <rect x="1009.0" y="36.0" width="42" height="42" rx="10" fill="#FFFFFF" opacity="0.051"/> <rect x="1095.0" y="36.0" width="42" height="42" rx="10" fill="#7C5CFF" opacity="0.180"/> <rect x="1181.0" y="36.0" width="42" height="42" rx="10" fill="#FFFFFF" opacity="0.066"/> <rect x="-23.0" y="122.0" width="42" height="42" rx="10" fill="#FFFFFF" opacity="0.050"/> <rect x="63.0" y="122.0" width="42" height="42" rx="10" fill="#FFFFFF" opacity="0.041"/> <rect x="149.0" y="122.0" width="42" height="42" rx="10" fill="#FFFFFF" opacity="0.035"/> <rect x="235.0" y="122.0" width="42" height="42" rx="10" fill="#FFFFFF" opacity="0.031"/> <rect x="923.0" y="122.0" width="42" height="42" rx="10" fill="#FFFFFF" opacity="0.031"/> <rect x="1009.0" y="122.0" width="42" height="42" rx="10" fill="#FFFFFF" opacity="0.035"/> <rect x="1095.0" y="122.0" width="42" height="42" rx="10" fill="#FFFFFF" opacity="0.041"/> <rect x="1181.0" y="122.0" width="42" height="42" rx="10" fill="#FFFFFF" opacity="0.050"/> <rect x="-23.0" y="208.0" width="42" height="42" rx="10" fill="#FFFFFF" opacity="0.040"/> <rect x="63.0" y="208.0" width="42" height="42" rx="10" fill="#FFFFFF" opacity="0.033"/> <rect x="149.0" y="208.0" width="42" height="42" rx="10" fill="#FFFFFF" opacity="0.030"/> <rect x="1009.0" y="208.0" width="42" height="42" rx="10" fill="#FFFFFF" opacity="0.030"/> <rect x="1095.0" y="208.0" width="42" height="42" rx="10" fill="#FFFFFF" opacity="0.033"/> <rect x="1181.0" y="208.0" width="42" height="42" rx="10" fill="#FFFFFF" opacity="0.040"/> <rect x="-23.0" y="294.0" width="42" height="42" rx="10" fill="#FFFFFF" opacity="0.037"/> <rect x="63.0" y="294.0" width="42" height="42" rx="10" fill="#FFFFFF" opacity="0.031"/> <rect x="1095.0" y="294.0" width="42" height="42" rx="10" fill="#FFFFFF" opacity="0.031"/> <rect x="1181.0" y="294.0" width="42" height="42" rx="10" fill="#FFFFFF" opacity="0.037"/> <rect x="-23.0" y="380.0" width="42" height="42" rx="10" fill="#FFFFFF" opacity="0.040"/> <rect x="63.0" y="380.0" width="42" height="42" rx="10" fill="#FFFFFF" opacity="0.033"/> <rect x="149.0" y="380.0" width="42" height="42" rx="10" fill="#FFFFFF" opacity="0.030"/> <rect x="1009.0" y="380.0" width="42" height="42" rx="10" fill="#FFFFFF" opacity="0.030"/> <rect x="1095.0" y="380.0" width="42" height="42" rx="10" fill="#FFFFFF" opacity="0.033"/> <rect x="1181.0" y="380.0" width="42" height="42" rx="10" fill="#FFFFFF" opacity="0.040"/> <rect x="-23.0" y="466.0" width="42" height="42" rx="10" fill="#FFFFFF" opacity="0.050"/> <rect x="63.0" y="466.0" width="42" height="42" rx="10" fill="#FFFFFF" opacity="0.041"/> <rect x="149.0" y="466.0" width="42" height="42" rx="10" fill="#FFFFFF" opacity="0.035"/> <rect x="235.0" y="466.0" width="42" height="42" rx="10" fill="#FFFFFF" opacity="0.031"/> <rect x="923.0" y="466.0" width="42" height="42" rx="10" fill="#FFFFFF" opacity="0.031"/> <rect x="1009.0" y="466.0" width="42" height="42" rx="10" fill="#FFFFFF" opacity="0.035"/> <rect x="1095.0" y="466.0" width="42" height="42" rx="10" fill="#FFFFFF" opacity="0.041"/> <rect x="1181.0" y="466.0" width="42" height="42" rx="10" fill="#FFFFFF" opacity="0.050"/> <rect x="-23.0" y="552.0" width="42" height="42" rx="10" fill="#FFFFFF" opacity="0.066"/> <rect x="63.0" y="552.0" width="42" height="42" rx="10" fill="#7C5CFF" opacity="0.180"/> <rect x="149.0" y="552.0" width="42" height="42" rx="10" fill="#FFFFFF" opacity="0.051"/> <rect x="235.0" y="552.0" width="42" height="42" rx="10" fill="#FFFFFF" opacity="0.045"/> <rect x="321.0" y="552.0" width="42" height="42" rx="10" fill="#FFFFFF" opacity="0.040"/> <rect x="407.0" y="552.0" width="42" height="42" rx="10" fill="#FFFFFF" opacity="0.037"/> <rect x="493.0" y="552.0" width="42" height="42" rx="10" fill="#FFFFFF" opacity="0.035"/> <rect x="579.0" y="552.0" width="42" height="42" rx="10" fill="#FFFFFF" opacity="0.035"/> <rect x="665.0" y="552.0" width="42" height="42" rx="10" fill="#FFFFFF" opacity="0.035"/> <rect x="751.0" y="552.0" width="42" height="42" rx="10" fill="#FFFFFF" opacity="0.037"/> <rect x="837.0" y="552.0" width="42" height="42" rx="10" fill="#FFFFFF" opacity="0.040"/> <rect x="923.0" y="552.0" width="42" height="42" rx="10" fill="#FFFFFF" opacity="0.045"/> <rect x="1009.0" y="552.0" width="42" height="42" rx="10" fill="#FFFFFF" opacity="0.051"/> <rect x="1095.0" y="552.0" width="42" height="42" rx="10" fill="#7C5CFF" opacity="0.180"/> <rect x="1181.0" y="552.0" width="42" height="42" rx="10" fill="#FFFFFF" opacity="0.066"/> <rect x="-23.0" y="638.0" width="42" height="42" rx="10" fill="#FFFFFF" opacity="0.079"/> <rect x="63.0" y="638.0" width="42" height="42" rx="10" fill="#FFFFFF" opacity="0.075"/> <rect x="149.0" y="638.0" width="42" height="42" rx="10" fill="#FFFFFF" opacity="0.071"/> <rect x="235.0" y="638.0" width="42" height="42" rx="10" fill="#7C5CFF" opacity="0.191"/> <rect x="321.0" y="638.0" width="42" height="42" rx="10" fill="#FFFFFF" opacity="0.063"/> <rect x="407.0" y="638.0" width="42" height="42" rx="10" fill="#FFFFFF" opacity="0.060"/> <rect x="493.0" y="638.0" width="42" height="42" rx="10" fill="#FFFFFF" opacity="0.058"/> <rect x="579.0" y="638.0" width="42" height="42" rx="10" fill="#FFFFFF" opacity="0.057"/> <rect x="665.0" y="638.0" width="42" height="42" rx="10" fill="#FFFFFF" opacity="0.058"/> <rect x="751.0" y="638.0" width="42" height="42" rx="10" fill="#FFFFFF" opacity="0.060"/> <rect x="837.0" y="638.0" width="42" height="42" rx="10" fill="#FFFFFF" opacity="0.063"/> <rect x="923.0" y="638.0" width="42" height="42" rx="10" fill="#FFFFFF" opacity="0.067"/> <rect x="1009.0" y="638.0" width="42" height="42" rx="10" fill="#FFFFFF" opacity="0.071"/> <rect x="1095.0" y="638.0" width="42" height="42" rx="10" fill="#FFFFFF" opacity="0.075"/> <rect x="1181.0" y="638.0" width="42" height="42" rx="10" fill="#FFFFFF" opacity="0.079"/></g>
<rect width="1200" height="630" fill="url(#glow)"/>
<g><rect x="217.9" y="241.1" width="64.4" height="64.4" rx="16.1" fill="#E9EBF2"/><rect x="301.2" y="241.1" width="64.4" height="64.4" rx="16.1" fill="#E9EBF2"/><rect x="217.9" y="324.4" width="64.4" height="64.4" rx="16.1" fill="#E9EBF2"/><rect x="301.2" y="324.4" width="64.4" height="64.4" rx="16.1" fill="#512BD4"/></g>
<g transform="translate(407.8,345.5)">
  <g fill="#F4F6FA">
<path transform="translate(0.00,0) scale(0.04102,-0.04102)" d="M727.3958361856639 -23.28000732511282Q542.0117219761947 -23.28000732511282 403.9809488803615 45.33000488206744Q265.95017578452826 113.9400170892477 189.78034180030227 236.342420509341Q113.61050781607628 358.7448239294343 113.61050781607628 519.7816955558956V1490H415.58788818866014V544.683486327529Q415.58788818866014 457.40397063525813 454.3571466114372 389.5481730619187Q493.12640503421426 321.6923754885793 563.1238584728113 282.753105469048Q633.1213119114084 243.81383544951677 727.6958335698715 243.81383544951677Q822.3903540074825 243.81383544951677 892.2690965172568 282.7220327470933Q962.1478390270311 321.6302300446699 1000.6935801592389 389.2886599440609Q1039.2393212914467 456.947089843452 1039.2393212914467 544.683486327529V1490H1341.2167016640306V519.8864481636441Q1341.2167016640306 358.4420275874436 1265.083252991984 236.04904826763013Q1188.9498043199376 113.65606894781665 1051.0048098194793 45.188030811351915Q913.0598153190209 -23.28000732511282 727.3958361856639 -23.28000732511282Z"/>
<path transform="translate(57.88,0) scale(0.04102,-0.04102)" d="M405.0494726598263 600.1571630835533V0H109.59222656488419V1069.7781982421875H397.8028283752501L398.8650488331914 793.9455078095198H355.8563830591738Q404.8142321817577 934.1523937992752 496.88869080133736 1012.1385675054044Q588.963149420917 1090.1247412115335 732.3468481525779 1090.1247412115335Q846.0199865810573 1090.1247412115335 929.8734832834452 1041.044833375141Q1013.7269799858332 991.9649255387485 1059.9260937534273 898.6738128680736Q1106.1252075210214 805.3827001973987 1106.1252075210214 672.4401562511921V0H810.6679614260793V618.7351721189916Q810.6679614260793 724.4985790997744 759.3329016119242 780.5869616679847Q707.9978417977691 836.6753442361951 614.5212536640465 836.6753442361951Q553.1739062517881 836.6753442361951 505.85102112032473 811.026183469221Q458.5281359888613 785.3770227022469 431.7888043243438 732.9853350799531Q405.0494726598263 680.5936474576592 405.0494726598263 600.1571630835533Z"/>
<path transform="translate(105.95,0) scale(0.04102,-0.04102)" d="M430.31212524697185 -18.522237550467253Q324.54991821572185 -18.522237550467253 242.0920703150332 16.98672546260059Q159.63422241434455 52.49568847566843 112.22859192080796 123.56800598092377Q64.82296142727137 194.6403234861791 64.82296142727137 300.8714672848582Q64.82296142727137 391.66265869140625 98.14863586612046 451.8192462157458Q131.47431030496955 511.97583374008536 189.28331848420203 548.7001379393041Q247.0923266634345 585.4244421385229 321.9957043491304 604.5543627925217Q396.8990820348263 623.6842834465206 479.2767175324261 631.5243713371456Q575.9746618680656 641.222315672785 633.6758459508419 650.0522393789142Q691.3770300336182 658.8821630850434 716.8203997854143 676.2443475332111Q742.2637695372105 693.6065319813788 742.2637695372105 728.1290002427995V734.4802111797035Q742.2637695372105 775.52773559466 721.606840826571 805.947257079184Q700.9499121159315 836.3667785637081 662.3604577705264 853.3982440177351Q623.7710034251213 870.4297094717622 569.1012719795108 870.4297094717622Q513.8649121150374 870.4297094717622 472.1331848204136 853.1682977285236Q430.40145752578974 835.906885985285 405.6066180486232 805.3764721676707Q380.81177857145667 774.8460583500564 375.02055908739567 734.7968017607927L98.28479492664337 744.9438806213439Q110.1694470308721 851.7545581161976 169.94947877153754 928.9542462248355Q229.72951051220298 1006.1539343334734 332.6835388317704 1048.1393377725035Q435.63756715133786 1090.1247412115335 576.0297815017402 1090.1247412115335Q680.1888378933072 1090.1247412115335 765.0017260760069 1066.1503820829093Q849.8146142587066 1042.1760229542851 910.2855896018445 995.4694506898522Q970.7565649449825 948.7628784254193 1003.0410400442779 880.6706573534757Q1035.3255151435733 812.578436281532 1035.3255151435733 724.2404821701348V0H748.2103039585054V150.3244921863079H742.9124670438468Q715.3928173854947 98.72281127795577 673.2618450950831 60.756079100072384Q631.1308728046715 22.789346922188997 571.4106884784997 2.1335546858608723Q511.6905041523278 -18.522237550467253 430.31212524697185 -18.522237550467253ZM512.265407718718 187.17123657092452Q583.2778234891593 187.17123657092452 635.457282718271 213.785040281713Q687.6367419473827 240.3988439925015 716.0302117969841 285.95503051579Q744.4236816465855 331.5112170390785 744.4236816465855 389.00946532934904V498.40180541947484Q731.5015625059605 491.03279785066843 709.1479272507131 484.27715759165585Q686.7942919954658 477.52151733264327 657.7237933371216 471.5303369127214Q628.6532946787775 465.5391564927995 595.9428204353899 460.1024462878704Q563.2323461920023 454.6657360829413 529.8343420438468 449.63240356370807Q478.5049890168011 442.1723815910518 437.2999792508781 425.3422637935728Q396.0949694849551 408.51214599609375 372.0545715354383 380.3373699951917Q348.0141735859215 352.16259399428964 348.0141735859215 309.3329504393041Q348.0141735859215 270.8123999014497 368.66223205812275 243.3542449939996Q389.310290530324 215.89609008654952 426.1974865756929 201.53366332873702Q463.0846826210618 187.17123657092452 512.265407718718 187.17123657092452Z"/>
<path transform="translate(151.12,0) scale(0.04102,-0.04102)" d="M109.59222656488419 0V1069.7781982421875H392.1875293031335L395.4097277857363 823.1833056658506H376.8052233941853Q403.98751099035144 914.4540686048567 454.7752685584128 973.69946228154Q505.56302612647414 1032.9448559582233 572.9362829625607 1061.8414892591536Q640.3095397986472 1090.7381225600839 714.58945068717 1090.7381225600839Q835.2651208527386 1090.7381225600839 921.1205011028796 1019.508064577356Q1006.9758813530207 948.2780065946281 1029.398164063692 819.1388842836022H997.3825622610748Q1018.2759887725115 905.8205798380077 1070.684813234955 966.4171020537615Q1123.0936376973987 1027.0136242695153 1197.5224670432508 1058.8758734147996Q1271.951296389103 1090.7381225600839 1357.9744423515756 1090.7381225600839Q1459.7831690307378 1090.7381225600839 1540.1820548138921 1046.458211671561Q1620.5809405970465 1002.1783007830381 1666.9172110223717 917.658279420808Q1713.2534814476967 833.1382580585778 1713.2534814476967 711.6579077169299V0H1417.7962353527546V656.9089563004673Q1417.7962353527546 751.9848771170775 1366.2534746733718 798.8543623872598Q1314.7107139939887 845.7238476574421 1239.3208825699985 845.7238476574421Q1182.4997565848407 845.7238476574421 1140.962547255726 820.7819267810918Q1099.425337926611 795.8400059047415 1076.6485167430415 751.4182761584821Q1053.8716955594718 706.9965464122226 1053.8716955594718 647.8107470721006V0H768.974012453109V665.1893518082798Q768.974012453109 747.6853955090046 720.1467651389539 796.7046215832233Q671.3195178247988 845.7238476574421 593.4840338716452 845.7238476574421Q541.4281191215597 845.7238476574421 498.54699474315754 821.2546990979463Q455.6658703647554 796.7855505384505 430.35767151229084 749.8585517861698Q405.0494726598263 702.931553033889 405.0494726598263 635.1345922872424V0Z"/>
<path transform="translate(224.09,0) scale(0.04102,-0.04102)" d="M719.0459338389337 -21.368845216929913Q645.1212390102446 -21.368845216929913 584.5544647183269 1.2790295407176018Q523.9876904264092 23.926904298365116 478.7953961174935 65.97135376185179Q433.6031018085778 108.01580322533846 405.2251672409475 165.8888806141913H400.8450122103095V0H109.59222656488419V1490H405.0494726598263V914.186578374356H408.3362512253225Q439.3628125041723 968.7219665534794 483.765096437186 1007.9965246580541Q528.1673803701997 1047.2710827626288 587.6397875957191 1068.6979119870812Q647.1121948212385 1090.1247412115335 721.1036157235503 1090.1247412115335Q853.9682128950953 1090.1247412115335 956.2760540824383 1021.8025195300579Q1058.5838952697814 953.4802978485823 1117.0816729795188 828.7969305384904Q1175.5794506892562 704.1135632283986 1175.5794506892562 535.3023681640625Q1175.5794506892562 365.42684692516923 1118.1227533016354 240.4223754890263Q1060.6660559140146 115.41790405288339 958.0882257129997 47.02452941797674Q855.5103955119848 -21.368845216929913 719.0459338389337 -21.368845216929913ZM639.2457824759185 218.66546630859375Q712.7155871652067 218.66546630859375 765.5474047921598 256.7114520277828Q818.3792224191129 294.75743774697185 847.1796252503991 365.8249047882855Q875.9800280816853 436.89237182959914 875.9800280816853 535.5068286135793Q875.9800280816853 634.4968456998467 847.2307403627783 704.9398730434477Q818.4814526438713 775.3829003870487 765.6496350169182 813.3355401586741Q712.8178173899651 851.2881799302995 639.2457824759185 851.2881799302995Q564.3736657761037 851.2881799302995 508.8074749801308 812.2110638413578Q453.24128418415785 773.1339477524161 422.9987573288381 702.4353588856757Q392.7562304735184 631.7367700189352 392.7562304735184 535.5068286135793Q392.7562304735184 439.87467651441693 423.0498724412173 368.56053222715855Q453.34351440891623 297.24638793990016 508.9608203172684 257.95592712424695Q564.5781262256205 218.66546630859375 639.2457824759185 218.66546630859375Z"/>
<path transform="translate(273.11,0) scale(0.04102,-0.04102)" d="M109.59222656488419 0V1069.7781982421875H405.0494726598263V0ZM256.88310180976987 1205.2698376365006Q185.17740722745657 1205.2698376365006 137.28127502463758 1250.2918871045708Q89.38514282181859 1295.3139365726413 89.38514282181859 1361.9566273624243Q89.38514282181859 1428.8785253837705 137.28127502463758 1473.4592120293528Q185.17740722745657 1518.039898674935 256.52064542324075 1518.039898674935Q328.5367471804576 1518.039898674935 376.5100191014686 1473.5170668179967Q424.48329102247953 1428.9942349610585 424.48329102247953 1361.6077499770079Q424.48329102247953 1295.0734191797674 376.4606368160023 1250.171628408134Q328.4379826095251 1205.2698376365006 256.88310180976987 1205.2698376365006Z"/>
<path transform="translate(292.43,0) scale(0.04102,-0.04102)" d="M704.5795739851892 1069.7781982421875V839.0838134735823H18.211041260510683V1069.7781982421875ZM194.44670044258237 1352.88916015625H489.90394653752446V326.43300415948033Q489.90394653752446 273.0014587454498 512.0752520803362 251.25900268927217Q534.246557623148 229.51654663309455 592.6601770110428 229.51654663309455Q616.1267187595367 229.51654663309455 649.886397715658 230.46546203829348Q683.6460766717792 231.4143774434924 701.8062146119773 232.3032934591174L711.3486743271351 2.4133630357682705Q679.5642871260643 -0.888916015625 631.2749414220452 -2.180059203878045Q582.9855957180262 -3.47120239213109 535.0664294548333 -3.47120239213109Q361.66791504621506 -3.47120239213109 278.0573077443987 67.66634704731405Q194.44670044258237 138.8038964867592 194.44670044258237 284.7230273485184Z"/>
<path transform="translate(321.55,0) scale(0.04102,-0.04102)" d="M109.59222656488419 0V1069.7781982421875H405.0494726598263V0ZM256.88310180976987 1205.2698376365006Q185.17740722745657 1205.2698376365006 137.28127502463758 1250.2918871045708Q89.38514282181859 1295.3139365726413 89.38514282181859 1361.9566273624243Q89.38514282181859 1428.8785253837705 137.28127502463758 1473.4592120293528Q185.17740722745657 1518.039898674935 256.52064542324075 1518.039898674935Q328.5367471804576 1518.039898674935 376.5100191014686 1473.5170668179967Q424.48329102247953 1428.9942349610585 424.48329102247953 1361.6077499770079Q424.48329102247953 1295.0734191797674 376.4606368160023 1250.171628408134Q328.4379826095251 1205.2698376365006 256.88310180976987 1205.2698376365006Z"/>
<path transform="translate(340.88,0) scale(0.04102,-0.04102)" d="M601.8923999071121 -23.520004883408546Q440.45958130434155 -23.520004883408546 319.0210888721049 46.1134002674371Q197.5825964398682 115.74680541828275 130.36725769378245 241.02018005214632Q63.151918947696686 366.2935546860099 63.151918947696686 533.0979077145457Q63.151918947696686 700.5667431652546 130.36725769378245 826.0390350352973Q197.5825964398682 951.51132690534 319.0210888721049 1021.5336175542325Q440.45958130434155 1091.555908203125 601.8923999071121 1091.555908203125Q764.2052197307348 1091.555908203125 885.185942998156 1021.5336175542325Q1006.1666662655771 951.51132690534 1073.3820050116628 826.0390350352973Q1140.5973437577486 700.5667431652546 1140.5973437577486 533.0979077145457Q1140.5973437577486 366.2935546860099 1073.3820050116628 241.02018005214632Q1006.1666662655771 115.74680541828275 885.185942998156 46.1134002674371Q764.2052197307348 -23.520004883408546 601.8923999071121 -23.520004883408546ZM601.8923999071121 215.0721496604383Q675.6225305236876 215.0721496604383 729.3676959294826 253.83269775658846Q783.1128613352776 292.5932458527386 812.3465039134026 364.2451770044863Q841.5801464915276 435.897108156234 841.5801464915276 533.3379052728415Q841.5801464915276 632.1364941373467 812.3465039134026 703.5006677210331Q783.1128613352776 774.8648413047194 729.3676959294826 813.9142974819988Q675.6225305236876 852.9637536592782 601.8923999071121 852.9637536592782Q528.9222717322409 852.9637536592782 474.8304516635835 814.0931933559477Q420.7386315949261 775.2226330526173 391.5049890168011 703.7306787073612Q362.2713464386761 632.2387243621051 362.2713464386761 533.3379052728415Q362.2713464386761 435.53931640833616 391.5049890168011 364.0662811305374Q420.7386315949261 292.5932458527386 474.6515557896346 253.83269775658846Q528.564479984343 215.0721496604383 601.8923999071121 215.0721496604383Z"/>
<path transform="translate(388.46,0) scale(0.04102,-0.04102)" d="M483.47281615808606 -20.346542969346046Q370.69744750484824 -20.346542969346046 286.3439508024603 28.733364867046475Q201.99045410007238 77.813272703439 155.79134033247828 171.33439636044204Q109.59222656488419 264.8555200174451 109.59222656488419 397.3380419909954V1069.7781982421875H405.0494726598263V451.0430261231959Q405.0494726598263 345.699598390609 456.82453308440745 289.4012261983007Q508.5995935089886 233.1028540059924 601.2984106466174 233.1028540059924Q662.7657568380237 233.1028540059924 709.977527467534 258.7520147729665Q757.1892980970442 284.4011755399406 783.9286297615618 337.0828735381365Q810.6679614260793 389.76457153633237 810.6679614260793 469.6210351586342V1069.7781982421875H1106.2274377457798V0H817.9146057106555L816.9546154774725 275.83269043266773H859.8610510267317Q810.8009716793895 135.77913574129343 718.8342724591494 57.71629638597369Q626.8675732389092 -20.346542969346046 483.47281615808606 -20.346542969346046Z"/>
<path transform="translate(436.54,0) scale(0.04102,-0.04102)" d="M549.1361315958202 -24.779942627996206Q412.77263183891773 -24.779942627996206 306.53880798630416 16.572047118097544Q200.3049841336906 57.924036864191294 135.67305298149586 136.5026684552431Q71.04112182930112 215.08130004629493 59.592226564884186 325.8590148873627L347.29397827759385 336.5303881764412Q358.3074597232044 265.8338391073048 409.21579590439796 226.8990075662732Q460.12413208559155 187.9641760252416 547.1406066901982 187.9641760252416Q630.3173388689756 187.9641760252416 677.7514007594436 219.4637017827481Q725.1854626499116 250.9632275402546 725.1854626499116 300.16185058653355Q725.1854626499116 342.31812988221645 689.4029412884265 368.5541204828769Q653.6204199269414 394.79011108353734 586.6134228557348 408.0969311520457L399.85835449397564 444.6660229489207Q244.5474804714322 475.5084448233247 164.701003421098 553.5594470202923Q84.85452637076378 631.6104492172599 84.85452637076378 754.4168493635952Q84.85452637076378 856.2498034648597 140.21654724515975 931.7385028060526Q195.5785681195557 1007.2272021472454 297.1936047412455 1048.7615863028914Q398.8086413629353 1090.2959704585373 536.9610315002501 1090.2959704585373Q673.0310986414552 1090.2959704585373 773.9748980794102 1048.191661376506Q874.9186975173652 1006.0873522944748 933.0662091132253 929.2120611574501Q991.2137207090855 852.3367700204253 998.1427685618401 746.1549597196281L726.7337976135314 735.7413525432348Q722.0447473190725 797.8486511223018 672.8810070864856 838.6158038321882Q623.7172668538988 879.3829565420747 544.7429199293256 879.3829565420747Q469.21536499634385 879.3829565420747 424.3258209284395 847.454581297934Q379.43627686053514 815.5262060537934 379.43627686053514 767.6608959957957Q379.43627686053514 726.3556665033102 413.0689184628427 699.4730242919177Q446.70156006515026 672.5903820805252 511.21124268323183 659.1190148927271L711.5877795480192 619.9589733891189Q872.1674450747669 588.0388000495732 948.5617126524448 516.6698406990618Q1024.9559802301228 445.3008813485503 1024.9559802301228 327.89876709133387Q1024.9559802301228 221.37908447533846 964.4406762756407 142.1049310322851Q903.9253723211586 62.83077758923173 796.578120123595 19.02541748061776Q689.2308679260314 -24.779942627996206 549.1361315958202 -24.779942627996206Z"/>
  </g>
  <g fill="#7C5CFF">
<path transform="translate(479.16,0) scale(0.04102,-0.04102)" d="M116.47284179925919 0V1490H1139.5486413650215V1228.6263452097774H423.4899731501937V851.0502380393445H1086.6503894142807V596.5162829570472H423.4899731501937V0Z"/>
<path transform="translate(526.33,0) scale(0.04102,-0.04102)" d="M18.458771973848343 0 446.13716430589557 625.3267199583352 441.47734985128045 472.07131104916334 43.61865112558007 1069.7781982421875H366.0759936571121L460.72909301891923 915.8157214410603Q502.75372925028205 843.8269165083766 539.4605743419379 776.29135132581Q576.1674194335938 708.7557861432433 612.9476538076997 641.704687513411H514.3058032244444Q552.7460144050419 708.6357873640954 589.4628320299089 776.231351936236Q626.1796496547759 843.8269165083766 669.5064709447324 915.8157214410603L766.6217968687415 1069.7781982421875H1084.1169775351882L677.1163940429688 471.3734680302441L681.3161865249276 624.355518784374L1100.797023922205 0H777.8997619561851L668.3861804194748 172.96759886667132Q626.4615698233247 243.31640013679862 589.7047601323575 309.1019494496286Q552.9479504413903 374.88749876245856 515.8477624543011 440.07636472582817H604.4501538053155Q566.8700036592782 374.88749876245856 530.5031957998872 309.1019494496286Q494.1363879404962 243.31640013679862 451.0896069332957 172.96759886667132L339.7560400441289 0Z"/>
  </g>
</g>
<rect x="0" y="624" width="1200" height="6" fill="#512BD4"/>
</svg>
