<?xml version="1.0" encoding="UTF-8" standalone="no"?>
<!-- Created with Inkscape (http://www.inkscape.org/) -->

<svg
   width="512mm"
   height="512mm"
   viewBox="0 0 512 512"
   version="1.1"
   id="svg1"
   xml:space="preserve"
   xmlns="http://www.w3.org/2000/svg"
   xmlns:svg="http://www.w3.org/2000/svg"><defs
     id="defs1" /><g
     id="layer1"><path
       style="fill:#000000;stroke-width:1.18138"
       d="M 170.22725,476.8868 C 150.15112,472.51765 125.43243,459.84779 107.71234,444.844 83.175029,424.06801 69.346277,403.89179 58.020591,372.34345 52.551158,357.10803 52.057435,352.52406 50.834787,305.62692 50.112726,277.93053 49.798076,238.90379 50.135586,218.90084 l 0.613633,-36.36898 h 15.352132 15.352134 l 0.196346,78.26781 c 0.220752,87.99482 1.39488,97.52352 15.141621,122.88255 21.985948,40.55811 62.468098,65.18261 107.158848,65.18261 59.36695,0 107.90736,-42.6747 120.82682,-106.22587 4.08935,-20.11562 10.10157,-63.70563 10.10157,-73.23874 0,-6.12538 -0.32897,-6.29705 -12.06689,-6.29705 -14.25598,0 -12.72415,-3.37662 -19.14294,42.19655 -5.35512,38.02109 -7.52127,46.644 -15.81038,62.93732 -12.62109,24.80838 -30.94907,40.91814 -55.85398,49.094 -36.6587,12.03443 -75.76956,0.40807 -99.9468,-29.71085 -22.18199,-27.63331 -23.16756,-33.04187 -23.19976,-127.31463 l -0.0265,-77.7737 h 14.39236 14.39237 l 0.71916,77.7737 0.71916,77.7737 6.88252,14.5476 c 7.5927,16.04873 17.19827,25.731 33.22328,33.48858 9.00651,4.35996 13.10424,4.96354 27.74989,4.08738 14.37107,-0.85973 19.066,-2.19405 28.68945,-8.15362 13.64742,-8.45151 25.85474,-25.3328 30.85942,-42.67494 2.60217,-9.01697 12.4674,-68.4563 12.4674,-75.11774 0,-0.47837 -3.27322,-1.18534 -7.27381,-1.57107 l -7.27379,-0.70132 v -14.54759 -14.54762 l 9.36071,-0.68082 c 10.63384,-0.77341 9.83536,1.06663 14.2727,-32.89055 5.53823,-42.38186 21.06909,-76.13441 46.96401,-102.064823 35.03436,-35.082394 76.08182,-50.562753 123.73591,-46.664936 9.45074,0.773014 17.80517,2.027488 18.56542,2.787718 0.76023,0.760244 0.66699,8.061044 -0.20719,16.224004 -1.52383,14.229465 -1.80969,14.786475 -6.92903,13.501604 -25.9015,-6.500862 -59.93502,-0.765465 -86.22204,14.530338 -18.84956,10.968105 -40.19488,33.779765 -50.20138,53.650005 -8.15737,16.19837 -15.30926,42.63652 -17.98928,66.50035 l -1.57093,13.98807 13.15811,-0.002 13.15812,-0.002 4.05942,-25.17583 c 2.92761,-18.15655 6.22388,-29.69324 11.82264,-41.3782 14.11295,-29.45466 44.13307,-52.20645 74.55896,-56.50713 14.81998,-2.09478 35.31904,-0.721 37.30998,2.50042 0.64243,1.03947 0.50318,7.76669 -0.30945,14.94937 l -1.4775,13.05942 -18.22017,-0.16174 c -15.26047,-0.13547 -20.2293,0.79484 -30.58837,5.72691 -25.90505,12.33372 -39.1937,35.31597 -45.44724,78.59933 l -1.21261,8.39285 h 31.19258 31.1926 v 15.60681 15.60681 l -33.01187,0.61936 -33.01186,0.61935 -1.51744,10.07143 c -0.8346,5.53928 -3.17926,22.66067 -5.21037,38.04756 -7.28392,55.18018 -17.10026,82.48074 -39.83468,110.78555 -36.59107,45.55665 -94.01223,66.06243 -150.5413,53.76005 z m 208.85376,-87.37505 c -3.38512,-2.93529 -6.15475,-6.27515 -6.15475,-7.4219 0,-1.14677 4.03147,-5.72722 8.95881,-10.17878 12.48581,-11.28017 24.91916,-11.60145 44.7554,-1.15648 6.77023,3.56492 13.66793,6.48383 15.32823,6.48648 1.66028,0.002 5.87917,-3.05735 9.37531,-6.79996 l 6.35659,-6.80476 7.41038,6.84156 7.41038,6.84158 -9.79973,8.91556 c -8.62741,7.84901 -11.11163,8.91557 -20.76619,8.91557 -7.73711,0 -14.88319,-1.97718 -24.26734,-6.71429 -7.31549,-3.69285 -14.54061,-6.71428 -16.0558,-6.71428 -1.51518,0 -5.82426,2.95349 -9.5757,6.56331 l -6.82083,6.56329 z m 53.15469,-36.56382 c -2.4619,-0.80896 -8.71641,-3.72999 -13.89892,-6.49118 -12.74981,-6.79299 -21.51172,-6.53701 -27.28066,0.79702 l -4.57594,5.81737 -6.65314,-5.25785 c -3.6592,-2.89182 -6.70884,-6.43829 -6.77695,-7.88106 -0.0682,-1.44277 4.08602,-6.2267 9.23139,-10.63093 13.00429,-11.1312 22.20118,-11.34335 43.38384,-1.00076 14.86763,7.25921 22.02976,6.67192 28.33009,-2.32305 3.15638,-4.50637 3.2628,-4.4878 10.85678,1.89559 l 7.66917,6.44659 -6.47455,6.81224 c -10.88153,11.44908 -22.53443,15.52144 -33.81111,11.81602 z M 200.59316,307.86502 c -15.21301,-8.03702 -20.44506,-8.25987 -27.18171,-1.15771 -6.55207,6.90752 -7.57188,6.92026 -15.56507,0.19443 l -6.46443,-5.43945 5.84842,-6.95043 c 12.75241,-15.1554 28.12881,-17.30936 47.83898,-6.70138 15.00182,8.07397 18.7494,8.22287 25.94152,1.03076 6.83891,-6.83892 7.1789,-6.83424 15.18959,0.20932 l 6.44069,5.6631 -6.44069,6.77549 c -14.0686,14.7999 -26.39885,16.52367 -45.6073,6.37587 z m -0.7617,-42.52375 c -15.40431,-8.2202 -22.13574,-8.48987 -27.93364,-1.11906 -5.49917,6.99107 -7.26398,6.98752 -13.85453,-0.0278 l -5.28255,-5.62303 4.492,-6.12696 c 5.62284,-7.66941 17.6867,-13.95224 26.79886,-13.95681 3.82712,-0.002 12.8914,3.00519 20.14282,6.68246 16.1867,8.2084 20.22226,8.34221 27.96188,0.92719 l 6.07,-5.81544 6.92149,5.11728 c 3.80682,2.8145 6.92148,5.73745 6.92148,6.49544 0,2.15162 -13.99685,14.86529 -19.43616,17.65434 -8.3075,4.25973 -19.66408,2.80296 -32.80165,-4.20763 z"
       id="path1" /></g></svg>
